<?xml version="1.0" standalone="no"?><!DOCTYPE svg PUBLIC "-//W3C//DTD SVG 1.1//EN" "http://www.w3.org/Graphics/SVG/1.1/DTD/svg11.dtd"><svg t="1624971464004" class="icon" viewBox="0 0 1024 1024" version="1.1" xmlns="http://www.w3.org/2000/svg" p-id="2709" xmlns:xlink="http://www.w3.org/1999/xlink" width="60" height="60"><defs><style type="text/css"></style></defs><path d="M877.714286 0H146.285714a146.285714 146.285714 0 0 0-146.285714 146.285714v731.428572a146.285714 146.285714 0 0 0 146.285714 146.285714h731.428572a146.285714 146.285714 0 0 0 146.285714-146.285714V146.285714a146.285714 146.285714 0 0 0-146.285714-146.285714z m73.142857 877.714286a73.142857 73.142857 0 0 1-73.142857 73.142857H146.285714a73.142857 73.142857 0 0 1-73.142857-73.142857V146.285714a73.142857 73.142857 0 0 1 73.142857-73.142857h731.428572a73.142857 73.142857 0 0 1 73.142857 73.142857z" fill="#9B9898" p-id="2710"></path><path d="M513.62437337 510.50424271L511.37597388 512.75740576 510.12315807 511.52364417A0.38108468 0.38108468 0 0 0 509.61822088 511.52364417a0.38108468 0.38108468 0 0 0 0 0.47635583l1.50052084 1.50052086a0.59068123 0.59068123 0 0 0 0.25246857 0.08574403 0.43824736 0.43824736 0 0 0 0.24770503-0.08574403l2.5008681-2.50086809a0.30963128 0.30963128 0 0 0 0-0.50017362 0.38108468 0.38108468 0 0 0-0.49541005 0.00476355z" fill="#9B9898" p-id="2711"></path></svg>