<svg width="16" height="16" viewBox="0 0 16 16" fill="none" xmlns="http://www.w3.org/2000/svg">
<path d="M10.6025 4.196C10.117 3.13518 9.42941 2.17225 8.57143 1.36036V4.55387C9.26714 4.51096 9.94755 4.38995 10.6025 4.19602V4.196ZM8.57143 7.42857H11.4109C11.365 6.68518 11.2297 5.96011 11.0127 5.26604C10.2342 5.50416 9.41638 5.65241 8.57143 5.69868V7.42857ZM8.57143 8.57143V10.3013C9.41638 10.3476 10.2342 10.4958 11.0127 10.734C11.2297 10.0399 11.365 9.31482 11.4109 8.57143H8.57143ZM8.57143 14.6396C9.42941 13.8278 10.117 12.8648 10.6025 11.804C9.94755 11.6101 9.26714 11.4891 8.57143 11.4461V14.6397V14.6396ZM7.42857 4.55386V1.36034C6.57059 2.17225 5.883 3.13516 5.39752 4.196C6.05245 4.38993 6.73286 4.51095 7.42857 4.55386ZM4.58905 7.42857H7.42857V5.69868C6.58363 5.65243 5.76584 5.50416 4.9873 5.26604C4.7703 5.96011 4.63504 6.68518 4.58905 7.42857ZM4.9873 10.734C5.76584 10.4958 6.58363 10.3476 7.42857 10.3013V8.57143H4.58905C4.63504 9.31482 4.7703 10.0399 4.9873 10.734ZM7.42857 14.6397V11.4461C6.73286 11.4891 6.05245 11.6101 5.39752 11.804C5.883 12.8648 6.57059 13.8278 7.42857 14.6396V14.6397ZM8 0C10.6957 0 13.08 1.33332 14.5294 3.37646C15.4556 4.68202 16 6.27743 16 8C16 9.72257 15.4556 11.318 14.5294 12.6236L14.5252 12.6201L14.5294 12.6236C13.08 14.6667 10.6957 16 8 16C5.30429 16 2.92 14.6667 1.47059 12.6235C0.544429 11.318 0 9.72257 0 8C0 6.27743 0.544429 4.68202 1.47059 3.37646C2.92 1.33332 5.30429 0 8 0ZM5.71577 1.53264C4.74334 1.8757 3.86063 2.435 3.13223 3.16968C3.51249 3.40951 3.91001 3.62081 4.32152 3.80186C4.68798 2.98321 5.1583 2.22121 5.71577 1.53264ZM11.6785 3.80186C12.09 3.62081 12.4875 3.40951 12.8678 3.16968C12.1394 2.435 11.2567 1.8757 10.2842 1.53264C10.8417 2.22121 11.312 2.98321 11.6785 3.80186ZM12.5558 7.42857H14.8337C14.7305 6.17804 14.2918 5.02262 13.6077 4.05263C13.1246 4.36749 12.6158 4.64107 12.0867 4.87045C12.3462 5.68386 12.5072 6.54123 12.5558 7.42857ZM12.0867 11.1296C12.6158 11.3589 13.1246 11.6325 13.6077 11.9474C14.2918 10.9774 14.7305 9.82198 14.8337 8.57143H12.5558C12.5072 9.45875 12.3462 10.3161 12.0867 11.1296ZM10.2842 14.4674C11.2567 14.1243 12.1394 13.565 12.8678 12.8303C12.4875 12.5905 12.09 12.3792 11.6785 12.1981C11.312 13.0168 10.8417 13.7788 10.2842 14.4674ZM4.32152 12.1981C3.91001 12.3792 3.51249 12.5905 3.13223 12.8303C3.86063 13.565 4.74334 14.1243 5.71577 14.4674C5.15832 13.7788 4.68798 13.0168 4.32152 12.1981ZM3.44418 8.57143H1.16632C1.2695 9.82196 1.70823 10.9774 2.39229 11.9474C2.87542 11.6325 3.38424 11.3589 3.91334 11.1296C3.65382 10.3161 3.49277 9.45877 3.44418 8.57143ZM2.39229 4.05263C1.70823 5.02262 1.2695 6.17802 1.16632 7.42857H3.44643L3.91071 4.875L2.39229 4.05263Z" fill="#E6E6E6"/>
</svg>
