<svg width="25" height="25" viewBox="0 0 25 25" fill="none" xmlns="http://www.w3.org/2000/svg">
<path d="M13.7188 4.68752C13.9142 4.90076 14.0226 5.17951 14.0226 5.46877C14.0226 5.75802 13.9142 6.03678 13.7188 6.25002L7.46875 12.5L13.7188 18.75C13.8342 18.9685 13.8766 19.2182 13.8398 19.4626C13.8029 19.7069 13.6888 19.9331 13.514 20.1078C13.3393 20.2825 13.1132 20.3967 12.8688 20.4335C12.6245 20.4704 12.3747 20.428 12.1563 20.3125L5.03125 13.3281C4.81692 13.1049 4.69423 12.8094 4.6875 12.5C4.6902 12.1944 4.81379 11.9023 5.03125 11.6875L12.0781 4.68752C12.1856 4.57933 12.3134 4.49347 12.4542 4.43488C12.595 4.37629 12.7459 4.34613 12.8984 4.34613C13.0509 4.34613 13.2019 4.37629 13.3427 4.43488C13.4835 4.49347 13.6113 4.57933 13.7188 4.68752Z" fill="#9C9C9C"/>
<path d="M19.9687 4.68752C20.1642 4.90076 20.2726 5.17951 20.2726 5.46877C20.2726 5.75802 20.1642 6.03678 19.9687 6.25002L13.7187 12.5L19.9687 18.75C20.0842 18.9685 20.1266 19.2182 20.0898 19.4626C20.0529 19.7069 19.9388 19.9331 19.764 20.1078C19.5893 20.2825 19.3632 20.3967 19.1188 20.4335C18.8745 20.4704 18.6247 20.428 18.4062 20.3125L11.2812 13.3281C11.0669 13.1049 10.9442 12.8094 10.9375 12.5C10.9402 12.1944 11.0638 11.9023 11.2812 11.6875L18.3281 4.68752C18.4356 4.57933 18.5634 4.49347 18.7042 4.43488C18.845 4.37629 18.9959 4.34613 19.1484 4.34613C19.3009 4.34613 19.4519 4.37629 19.5927 4.43488C19.7335 4.49347 19.8613 4.57933 19.9687 4.68752Z" fill="#9C9C9C"/>
</svg>
