<svg width="16" height="16" viewBox="0 0 16 16" fill="none" xmlns="http://www.w3.org/2000/svg">
<path d="M1.14286 9.14375H5.71429C5.86437 9.14375 6.01298 9.17331 6.15164 9.23074C6.2903 9.28816 6.41628 9.37233 6.52241 9.47844C6.62853 9.58455 6.71271 9.71052 6.77015 9.84916C6.82758 9.9878 6.85714 10.1364 6.85714 10.2864V14.8572C6.85714 15.0073 6.82758 15.1559 6.77015 15.2945C6.71271 15.4332 6.62853 15.5591 6.52241 15.6652C6.41628 15.7713 6.2903 15.8555 6.15164 15.9129C6.01298 15.9704 5.86437 15.9999 5.71429 15.9999H1.14286C0.992775 15.9999 0.844162 15.9704 0.705505 15.9129C0.566847 15.8555 0.440859 15.7713 0.334735 15.6652C0.228611 15.5591 0.144429 15.4332 0.0869948 15.2945C0.0295608 15.1559 0 15.0073 0 14.8572V10.2864C0 10.1364 0.0295608 9.9878 0.0869948 9.84916C0.144429 9.71052 0.228611 9.58455 0.334735 9.47844C0.440859 9.37233 0.566847 9.28816 0.705505 9.23074C0.844162 9.17331 0.992775 9.14375 1.14286 9.14375V9.14375ZM1.14286 10.2864V14.8572H5.71429V10.2864H1.14286ZM10.2857 9.14375H14.8571C15.0072 9.14375 15.1558 9.17331 15.2945 9.23074C15.4332 9.28816 15.5591 9.37233 15.6653 9.47844C15.7714 9.58455 15.8556 9.71052 15.913 9.84916C15.9704 9.9878 16 10.1364 16 10.2864V14.8572C16 15.0073 15.9704 15.1559 15.913 15.2945C15.8556 15.4332 15.7714 15.5591 15.6653 15.6652C15.5591 15.7713 15.4332 15.8555 15.2945 15.9129C15.1558 15.9704 15.0072 15.9999 14.8571 15.9999H10.2857C10.1356 15.9999 9.98702 15.9704 9.84836 15.9129C9.7097 15.8555 9.58372 15.7713 9.47759 15.6652C9.37147 15.5591 9.28729 15.4332 9.22985 15.2945C9.17242 15.1559 9.14286 15.0073 9.14286 14.8572V10.2864C9.14286 10.1364 9.17242 9.9878 9.22985 9.84916C9.28729 9.71052 9.37147 9.58455 9.47759 9.47844C9.58372 9.37233 9.7097 9.28816 9.84836 9.23074C9.98702 9.17331 10.1356 9.14375 10.2857 9.14375V9.14375ZM10.2857 10.2864V14.8572H14.8571V10.2864H10.2857ZM1.14286 0.00219727H5.71429C5.86437 0.00219727 6.01298 0.0317539 6.15164 0.0891797C6.2903 0.146605 6.41628 0.230775 6.52241 0.336884C6.62853 0.442993 6.71271 0.568963 6.77015 0.707602C6.82758 0.84624 6.85714 0.994831 6.85714 1.14489V5.71567C6.85714 5.86573 6.82758 6.01432 6.77015 6.15296C6.71271 6.2916 6.62853 6.41757 6.52241 6.52368C6.41628 6.62979 6.2903 6.71396 6.15164 6.77138C6.01298 6.82881 5.86437 6.85836 5.71429 6.85836H1.14286C0.992775 6.85836 0.844162 6.82881 0.705505 6.77138C0.566847 6.71396 0.440859 6.62979 0.334735 6.52368C0.228611 6.41757 0.144429 6.2916 0.0869948 6.15296C0.0295608 6.01432 0 5.86573 0 5.71567V1.14489C0 0.994831 0.0295608 0.84624 0.0869948 0.707602C0.144429 0.568963 0.228611 0.442993 0.334735 0.336884C0.440859 0.230775 0.566847 0.146605 0.705505 0.0891797C0.844162 0.0317539 0.992775 0.00219727 1.14286 0.00219727V0.00219727ZM1.14286 1.14489V5.71567H5.71429V1.14489H1.14286V1.14489Z" fill="#666666"/>
<path d="M14.8571 0C15.0072 0 15.1558 0.0295566 15.2945 0.0869824C15.4331 0.144408 15.5591 0.228579 15.6653 0.334688C15.7714 0.440797 15.8556 0.566766 15.913 0.705404C15.9704 0.844042 16 0.992633 16 1.14269V5.71347C16 5.86353 15.9704 6.01213 15.913 6.15076C15.8556 6.2894 15.7714 6.41537 15.6653 6.52148C15.5591 6.62759 15.4331 6.71176 15.2945 6.76919C15.1558 6.82661 15.0072 6.85617 14.8571 6.85617H10.2857C10.1356 6.85617 9.98701 6.82661 9.84836 6.76919C9.7097 6.71176 9.58371 6.62759 9.47759 6.52148C9.37146 6.41537 9.28728 6.2894 9.22985 6.15076C9.17241 6.01213 9.14285 5.86353 9.14285 5.71347V1.14269C9.14285 0.992633 9.17241 0.844042 9.22985 0.705404C9.28728 0.566766 9.37146 0.440797 9.47759 0.334688C9.58371 0.228579 9.7097 0.144408 9.84836 0.0869824C9.98701 0.0295566 10.1356 0 10.2857 0H14.8571V0ZM14.8571 1.14269H10.2857V5.71347H14.8571V1.14269V1.14269Z" fill="#666666"/>
</svg>
