<svg width="16" height="16" viewBox="0 0 16 16" fill="none" xmlns="http://www.w3.org/2000/svg">
<path d="M12.2754 0V1.23077L14.9508 4.33846L13.4557 6.09231C13.2459 5.87692 13.0098 5.78462 12.7475 5.78462C12.1443 5.78462 11.6721 6.33846 11.6721 7.04615V13.5385C11.6721 14.2154 11.2 14.7692 10.623 14.7692H5.37705C4.8 14.7692 4.32787 14.2154 4.32787 13.5385V7.04615C4.32787 6.33846 3.85574 5.78462 3.25246 5.78462C2.99016 5.78462 2.72787 5.90769 2.54426 6.09231L1.04918 4.33846L3.69836 1.23077H4.3541L4.38033 1.26154C5.11475 2.55385 6.50492 3.38462 8 3.38462C9.49508 3.38462 10.8852 2.58462 11.6197 1.26154C11.6197 1.23077 11.6459 1.23077 11.6459 1.23077H12.2754V0ZM4.38033 0H3.80328C3.43607 0 3.17377 0.123077 2.99016 0.369231L0.314754 3.47692C-0.104918 3.96923 -0.104918 4.73846 0.314754 5.2L1.8623 7.01538C2.0459 7.23077 2.3082 7.35385 2.54426 7.35385C2.78033 7.35385 3.04262 7.23077 3.22623 7.01538H3.25246C3.27869 7.01538 3.27869 7.01538 3.27869 7.04615V13.5385C3.27869 14.8923 4.22295 16 5.37705 16H10.623C11.777 16 12.7213 14.8923 12.7213 13.5385V7.04615C12.7213 7.01538 12.7213 7.01538 12.7475 7.01538H12.7738C12.9574 7.23077 13.2197 7.35385 13.4557 7.35385C13.718 7.35385 13.9541 7.23077 14.1377 7.01538L15.6852 5.2C16.1049 4.70769 16.1049 3.93846 15.6852 3.47692L13.0361 0.369231C12.8262 0.123077 12.5639 0 12.2754 0H11.6197C11.2525 0 10.9377 0.215385 10.7279 0.584615C10.177 1.53846 9.1541 2.15385 7.97377 2.15385C6.79344 2.15385 5.77049 1.50769 5.21967 0.584615C5.06229 0.215385 4.72131 0 4.38033 0Z" fill="#666666"/>
</svg>
