<svg width="25" height="25" viewBox="0 0 25 25" fill="none" xmlns="http://www.w3.org/2000/svg">
<path d="M11.2813 4.68752C11.0859 4.90076 10.9775 5.17951 10.9775 5.46877C10.9775 5.75802 11.0859 6.03678 11.2813 6.25002L17.5313 12.5L11.2813 18.75C11.1213 18.8346 10.9833 18.9555 10.8786 19.1032C10.7738 19.2508 10.7052 19.421 10.6782 19.5999C10.6512 19.7789 10.6666 19.9618 10.7232 20.1337C10.7798 20.3057 10.8759 20.4619 11.0039 20.5899C11.1319 20.7179 11.2882 20.8141 11.4601 20.8706C11.6321 20.9272 11.8149 20.9426 11.9939 20.9156C12.1729 20.8887 12.3431 20.82 12.4907 20.7153C12.6383 20.6105 12.7593 20.4726 12.8438 20.3125L19.8907 13.2656C20.12 13.0704 20.2701 12.7981 20.3126 12.5C20.3099 12.1944 20.1863 11.9023 19.9688 11.6875L12.922 4.68752C12.8145 4.57933 12.6867 4.49347 12.5459 4.43488C12.4051 4.37629 12.2541 4.34613 12.1016 4.34613C11.9492 4.34613 11.7982 4.37629 11.6574 4.43488C11.5166 4.49347 11.3888 4.57933 11.2813 4.68752V4.68752Z" fill="#6C6C6C"/>
<path d="M5.03133 4.68752C4.83589 4.90076 4.72747 5.17951 4.72747 5.46877C4.72747 5.75802 4.83589 6.03678 5.03133 6.25002L11.2813 12.5L5.03133 18.75C4.87129 18.8346 4.73334 18.9555 4.62858 19.1032C4.52382 19.2508 4.45519 19.421 4.4282 19.5999C4.40122 19.7789 4.41663 19.9618 4.47321 20.1337C4.52979 20.3057 4.62594 20.4619 4.75394 20.5899C4.88194 20.7179 5.0382 20.8141 5.21014 20.8706C5.38209 20.9272 5.56492 20.9426 5.74391 20.9156C5.9229 20.8887 6.09306 20.82 6.24068 20.7153C6.3883 20.6105 6.50926 20.4726 6.59383 20.3125L13.7188 13.3281C13.9332 13.1049 14.0559 12.8094 14.0626 12.5C14.0599 12.1944 13.9363 11.9023 13.7188 11.6875L6.67196 4.68752C6.56449 4.57933 6.43669 4.49347 6.2959 4.43488C6.15512 4.37629 6.00414 4.34613 5.85165 4.34613C5.69916 4.34613 5.54817 4.37629 5.40739 4.43488C5.26661 4.49347 5.1388 4.57933 5.03133 4.68752V4.68752Z" fill="#6C6C6C"/>
</svg>
