<svg width="16" height="16" viewBox="0 0 16 16" fill="none" xmlns="http://www.w3.org/2000/svg">
<path d="M3.54056 13.1641H2.00362C1.45209 13.1641 1.00277 12.6736 1.00277 12.0669V1.64472H0.750151C0.335543 1.64472 0 1.27688 0 0.82236C0 0.367842 0.335543 0 0.750151 0H15.2499C15.6645 0 16 0.367842 16 0.82236C16 1.27688 15.6645 1.64472 15.2499 1.64472H15.0011V12.0669C15.0011 12.6715 14.5537 13.1641 14.0002 13.1641H12.3341L13.2038 14.1175C13.5818 14.5594 13.5606 15.2528 13.1575 15.6671C12.7718 16.0625 12.174 16.0625 11.7884 15.6671L9.66711 13.3417C9.6189 13.2867 9.57455 13.2275 9.53598 13.1641H6.33482C6.29625 13.2275 6.25383 13.2867 6.20369 13.3417L4.08244 15.665C3.69869 16.1005 3.06617 16.1132 2.66892 15.6925C2.27166 15.2718 2.26009 14.5784 2.64385 14.1429C2.65156 14.1344 2.65927 14.1239 2.66892 14.1154L3.53863 13.162L3.54056 13.1641ZM2.18296 1.93434V11.8006H13.7978V1.93434H2.18296Z" fill="white"/>
<path d="M6.38303 3.54947L10.6005 6.35268C10.7605 6.45838 10.7605 6.71418 10.6005 6.822L6.38303 9.6231C6.21719 9.73303 6.00313 9.60196 6.00313 9.38844V3.78413C6.00313 3.57061 6.21719 3.43954 6.38303 3.54947Z" fill="white"/>
</svg>
