<svg width="16" height="16" viewBox="0 0 16 16" fill="none" xmlns="http://www.w3.org/2000/svg">
<path d="M10.398 16C10.108 16 9.824 15.872 9.642 15.6586C9.392 15.3707 8.604 14.6187 7.958 14.6187C7.317 14.6187 6.516 15.3739 6.286 15.6394C6.14174 15.7978 5.95633 15.9063 5.75367 15.9512C5.55102 15.9961 5.34041 15.9752 5.149 15.8912L5.129 15.8816L3.166 14.7189L3.146 14.7051C2.97199 14.573 2.84576 14.3813 2.78842 14.1619C2.73108 13.9425 2.74611 13.7087 2.831 13.4998C2.831 13.4966 3.011 13.0582 3.011 12.6571C3.00835 12.071 2.78788 11.51 2.39795 11.0971C2.00802 10.6842 1.48046 10.4531 0.931 10.4545H0.85C0.521 10.4545 0.254 10.1451 0.168 9.66729C0.161 9.62889 0 8.72224 0 8.00652C0 7.29186 0.16 6.38521 0.167 6.34681C0.254 5.86149 0.527 5.55109 0.862 5.55856H0.932C2.078 5.55856 3.012 4.57084 3.012 3.35593C3.012 2.95594 2.832 2.51648 2.83 2.51328C2.74494 2.30391 2.73023 2.06965 2.78834 1.85005C2.84646 1.63046 2.97385 1.43898 3.149 1.30797L3.169 1.2941L5.24 0.0887906L5.262 0.0791908C5.45302 -0.00157704 5.662 -0.0210835 5.86328 0.0230668C6.06455 0.0672171 6.24936 0.173102 6.395 0.32772C6.64 0.599715 7.415 1.3069 8.042 1.3069C8.663 1.3069 9.433 0.613581 9.677 0.346919C9.82379 0.193828 10.0092 0.0896951 10.2106 0.0472603C10.412 0.00482545 10.6207 0.0259295 10.811 0.10799L10.832 0.11759L12.832 1.2941L12.852 1.30904C13.0267 1.44048 13.1535 1.63209 13.2113 1.85162C13.269 2.07114 13.2541 2.30518 13.169 2.51435C13.169 2.51648 12.989 2.95594 12.989 3.357C12.989 4.57084 13.922 5.55856 15.069 5.55856H15.139C15.472 5.55109 15.746 5.86149 15.833 6.34575C15.839 6.38415 16 7.29186 16 8.00652C16 8.72117 15.84 9.62889 15.832 9.66729C15.746 10.1515 15.472 10.4619 15.138 10.4545H15.068C13.922 10.4545 12.988 11.4433 12.988 12.6571C12.988 13.0582 13.168 13.4966 13.17 13.5008C13.2547 13.71 13.2693 13.9439 13.2114 14.1632C13.1535 14.3825 13.0266 14.5738 12.852 14.7051L12.832 14.72L10.798 15.9104L10.776 15.92C10.6564 15.9737 10.5278 16.001 10.398 16ZM10.336 14.9856C10.3551 14.9963 10.3764 15.0018 10.398 15.0016H10.401L12.301 13.8901C12.256 13.7771 12.046 13.2288 12.046 12.6582C12.046 10.9494 13.317 9.54889 14.91 9.46142C14.933 9.32703 15.058 8.57291 15.058 8.00652C15.058 7.44119 14.933 6.68707 14.91 6.55268C13.317 6.46521 12.046 5.0647 12.046 3.35593C12.046 2.78421 12.256 2.23595 12.302 2.12395L10.432 1.02317H10.425C10.3999 1.02304 10.3751 1.02964 10.353 1.04237C10.1393 1.26827 9.90776 1.47418 9.661 1.65783C9.085 2.08662 8.541 2.30528 8.041 2.30528C7.538 2.30528 6.989 2.08236 6.409 1.64503C6.16081 1.45773 5.92828 1.24789 5.714 1.01784C5.6895 1.00369 5.66182 0.997047 5.634 0.998641L3.699 2.12502C3.746 2.23915 3.955 2.78634 3.955 3.35593C3.955 5.0647 2.684 6.46521 1.091 6.55268C1.068 6.68707 0.943 7.44119 0.943 8.00652C0.943 8.57184 1.068 9.32703 1.091 9.46142C2.684 9.54889 3.955 10.9494 3.955 12.6582C3.955 13.231 3.744 13.7803 3.699 13.8912L5.53 14.976H5.535C5.55591 14.9759 5.5765 14.9704 5.595 14.96C5.81112 14.7214 6.04635 14.5033 6.298 14.3083C6.886 13.8517 7.444 13.6203 7.958 13.6203C8.477 13.6203 9.04 13.856 9.631 14.3211C10.027 14.6325 10.302 14.9451 10.336 14.9856ZM7.965 10.9291C6.437 10.9291 5.195 9.61395 5.195 7.99585C5.195 6.37775 6.437 5.06257 7.965 5.06257C9.493 5.06257 10.735 6.37775 10.735 7.99585C10.735 9.61395 9.493 10.9291 7.965 10.9291ZM7.965 6.05988C7.48203 6.05847 7.01827 6.26154 6.67553 6.62451C6.3328 6.98748 6.13912 7.48069 6.137 7.99585C6.137 9.0625 6.957 9.93182 7.965 9.93182C8.44789 9.93295 8.9115 9.72979 9.25417 9.36688C9.59685 9.00397 9.79062 8.51092 9.793 7.99585C9.793 6.9292 8.973 6.05988 7.965 6.05988Z" fill="#999999"/>
</svg>
