<svg width="30" height="30" viewBox="0 0 30 30" fill="none" xmlns="http://www.w3.org/2000/svg">
<path d="M16.875 4.6875C17.348 4.68735 17.8037 4.86601 18.1505 5.18765C18.4974 5.5093 18.7098 5.95017 18.7453 6.42188L18.75 6.5625V8.4375C18.7497 8.67645 18.6582 8.90628 18.4942 9.08003C18.3302 9.25379 18.106 9.35835 17.8674 9.37235C17.6289 9.38635 17.394 9.30874 17.2108 9.15538C17.0275 9.00201 16.9098 8.78446 16.8816 8.54719L16.875 8.4375V6.5625H11.25V22.5C11.4986 22.5 11.7371 22.5988 11.9129 22.7746C12.0887 22.9504 12.1875 23.1889 12.1875 23.4375C12.1875 23.6861 12.0887 23.9246 11.9129 24.1004C11.7371 24.2762 11.4986 24.375 11.25 24.375H9.375C9.12636 24.375 8.8879 24.2762 8.71209 24.1004C8.53627 23.9246 8.4375 23.6861 8.4375 23.4375C8.4375 23.1889 8.53627 22.9504 8.71209 22.7746C8.8879 22.5988 9.12636 22.5 9.375 22.5V6.5625H3.75V8.4375C3.74973 8.67645 3.65824 8.90628 3.4942 9.08003C3.33017 9.25379 3.10598 9.35835 2.86744 9.37235C2.6289 9.38635 2.39402 9.30874 2.21078 9.15538C2.02754 9.00201 1.90978 8.78446 1.88156 8.54719L1.875 8.4375V6.5625C1.87485 6.08946 2.05351 5.63384 2.37515 5.28699C2.6968 4.94013 3.13767 4.72767 3.60938 4.69219L3.75 4.6875H16.875ZM21.5625 24.375C21.3139 24.375 21.0754 24.2762 20.8996 24.1004C20.7238 23.9246 20.625 23.6861 20.625 23.4375C20.625 23.1889 20.7238 22.9504 20.8996 22.7746C21.0754 22.5988 21.3139 22.5 21.5625 22.5V13.125H18.75V14.0625C18.7497 14.3014 18.6582 14.5313 18.4942 14.705C18.3302 14.8788 18.106 14.9833 17.8674 14.9973C17.6289 15.0114 17.394 14.9337 17.2108 14.7804C17.0275 14.627 16.9098 14.4095 16.8816 14.1722L16.875 14.0625V13.125C16.8749 12.652 17.0535 12.1963 17.3752 11.8495C17.6968 11.5026 18.1377 11.2902 18.6094 11.2547L18.75 11.25H26.25C26.723 11.2499 27.1787 11.4285 27.5255 11.7502C27.8724 12.0718 28.0848 12.5127 28.1203 12.9844L28.125 13.125V14.0625C28.1247 14.3014 28.0332 14.5313 27.8692 14.705C27.7052 14.8788 27.481 14.9833 27.2424 14.9973C27.0039 15.0114 26.769 14.9337 26.5858 14.7804C26.4025 14.627 26.2848 14.4095 26.2566 14.1722L26.25 14.0625V13.125H23.4375V22.5C23.6861 22.5 23.9246 22.5988 24.1004 22.7746C24.2762 22.9504 24.375 23.1889 24.375 23.4375C24.375 23.6861 24.2762 23.9246 24.1004 24.1004C23.9246 24.2762 23.6861 24.375 23.4375 24.375H21.5625Z" fill="#19A0FA"/>
</svg>
