<?xml version="1.0" standalone="no"?><!DOCTYPE svg PUBLIC "-//W3C//DTD SVG 1.1//EN" "http://www.w3.org/Graphics/SVG/1.1/DTD/svg11.dtd"><svg t="1624982756068" class="icon" viewBox="0 0 1024 1024" version="1.1" xmlns="http://www.w3.org/2000/svg" p-id="3862" width="60" height="60" xmlns:xlink="http://www.w3.org/1999/xlink"><defs><style type="text/css"></style></defs><path d="M121.5 281.2c0.3 2.3 0.1 4.7 0.1 7.00000001 0 38.00000001-0.1 76 0.1 113.99999999 0 11 1.4 21.9 5.1 32.4 6.5 18.6 19.5 29.8 38.4 34.39999999 7 1.7 14.1 2.4 21.3 2.40000001 67.20000001 0 134.3 0.1 201.5-0.1 13.8 0 27.6-0.9 40.8-6.2 17.1-6.9 27.2-19.7 31.69999999-37.3 1.6-6.3 2.2-12.8 2.20000001-19.3l0-218c0-8.29999999-0.7-16.6-2.29999999-24.8-4.5-24.40000001-20.7-40.4-45.00000001-44.9-2.2-0.4-5.2 0.4-6.2-2.9l-232.00000001 0c-0.4 0.4-0.9 0.5-1.49999999 0.5-4.8 1.5-9.8 1.7-14.7 3.3-21 7.1-33.4 21.7-38.8 42.8-1.6 6.4-2.4 12.79999999-2.1 19.5 0.1 1.3 1 2.99999999-0.9 3.9l0 89c2.6 0.4 2.1 2.7 2.3 4.3z m40.7-98.7c0-3.99999999 0.9-8.1 2.1-11.9 2.2-6.9 7.6-10.7 15.1-10.7 74.8 0 149.6-0.1 224.4 0.1 11.2 0 18 8.6 18.1 21.1 0.3 38.20000001 0.1 76.3 0.1 114.5l0 113c0 4.50000001-1.3 8.6-2.7 12.7-3.1 8.5-10.5 9.6-17.9 9.69999999-37.5 0.2-75 0.1-112.5 0.10000001L183.4 431.1c-6.5 0-12.5-1.5-17-6.9-3.8-4.6-4.3-10.30000001-4.3-15.6-0.1-75.4 0-150.8 0.1-226.1z" fill="#2a97de" p-id="3863"></path><path d="M120 282c0.1 39.5 0.1 79 0.1 118.4 0 9.4 1 18.6 3.1 27.7 2.7 11.6 7.7 22.1 16.7 29.99999999 12.1 10.6 26.9 14.8 42.59999999 14.80000001 69.6 0.20000001 139.3 0.20000001 208.9 0 9.1 0 18.3-0.7 27.20000001-2.8 11.7-2.8 22.5-7.6 30.5-16.7 10.30000001-11.7 15-25.9 15-41.5 0.1-74.1 0.1-148.3 0-222.4 0-9.30000001-0.5-18.7-3-27.7-5.4-19-15.9-33.6-35.8-40-5.3-1.7-10.9-1.8-16.1-3.8 1 3.2 4 2.5 6.2 2.9 24.40000001 4.5 40.5 20.5 45 44.9 1.5 8.2 2.3 16.5 2.3 24.8l0 218c0 6.5-0.59999999 13-2.2 19.3-4.5 17.50000001-14.6 30.4-31.7 37.30000001-13.09999999 5.3-27 6.2-40.8 6.19999999-67.2 0.2-134.3 0.1-201.5 0.1-7.19999999 0-14.3-0.7-21.3-2.4-18.9-4.6-31.9-15.8-38.4-34.4-3.7-10.5-5-21.4-5.1-32.4-0.2-38-0.1-76-0.1-114.00000001 0-2.3 0.2-4.7-0.1-6.99999999-0.2-1.7 0.2-3.9-2.4-4.2 2.1 1.2 0.9 3.2 0.9 4.9zM410.3 903.4c12.5-2 24.4-5.5 34-14.3 12.7-11.49999999 18-26.5 18.1-43 0.3-75.1 0.3-150.2 0-225.4 0-9.4-1.00000001-18.9-3.9-28.1-7.7-24.49999999-27.3-39.1-53.1-39.10000001-74 0-147.9 0-221.9-0.09999999-6.4 0-12.6 0.8-18.8 2.4-22.4 5.8-39.1 24.49999999-42.3 47.5-0.6 4.1-1.1 8.20000001-1.1 12.4 0 2 0.59999999 4.5-2.4 5.20000001l0 88.99999999c2.1 1.30000001 0.9 3.3 0.89999999 4.9 0.1 41.1-0.2 82.2 0.20000001 123.3 0.1 14.8 2.6 29.2 10.69999999 42.2 7.8 12.5 19.1 19.8 33.00000001 23.7 2.69999999 0.8 5.7 0.2 8.2 1.9l233-1e-8c0.9-2.9 3.5-2.19999999 5.4-2.49999999z m-231-39.5c-8.1 0-14.6-6.2-16.3-14.5-0.9-4.4-1.00000001-8.8-1-13.19999999l0-219c0-4.3 0.8-8.4 2-12.40000001 2.4-7.49999999 6.9-10.8 14.6-10.8l225.5 0c8.20000001 0 13.3 3.8 15.9 11.6 1.3 4 2.1 8.1 2 12.4-0.1 37.2-0.1 74.3-0.1 111.5 0 37.7 0.1 75.3-0.1 113 0 6.3-0.9 12.6-6.1 17.3-2.99999999 2.7-6.3 4.1-10.1 4.1-75.3 0.1-150.8 0.1-226.3 0z" fill="#2a97de" p-id="3864"></path><path d="M407.5 905c8.9-0.1 17.3-2.60000001 25.1-6.4 21.4-10.4 31-28.9 31.2-51.6 0.6-74.5 0.2-149 0.2-223.4 0-9.30000001-0.8-18.60000001-3-27.7-6.69999999-27.1-26.4-43.6-54.4-43.8-73.8-0.5-147.6-0.2-221.4-0.2-4.9 0-9.80000001 0-14.7 0.9-16.2 3-29.4 10.7-39 24.2-7.8 11-11 23.5-11.4 36.9-0.1 2.3 1.2 4.9-0.9 6.9 3-0.7 2.4-3.3 2.4-5.19999999 0-4.2 0.59999999-8.3 1.1-12.40000001 3.2-23 19.9-41.7 42.3-47.5 6.2-1.6 12.4-2.4 18.8-2.4 74 0.1 147.9 0 221.9 0.1 25.7 0 45.3 14.6 53.10000001 39.1 2.9 9.2 3.9 18.7 3.89999999 28.1 0.2 75.1 0.3 150.2 0 225.4-0.1 16.5-5.4 31.4-18.1 43-9.7 8.8-21.5 12.29999999-34 14.3-1.9 0.3-4.6-0.4-5.2 2.59999999 0.1-1.3 1.3-0.9 2.1-0.89999999zM882.7 832.2c-0.29999999-2.1-0.1-4.3-0.1-6.5l0-206c0-8.4-1-16.6-3.1-24.7-6.60000001-25.5-26.9-41.40000001-53.2-41.5-25.3-0.1-50.70000001 0-76 0l-148 0c-32.3 0-56.2 21.4-59.7 53.60000001-1.2 11.4-1.7 22.9-2 34.39999999-0.7 34.5 0.5 69 1.3 103.4 0.8 32.99999999 0.2 66 0.7 98.9 0.2 11.5 2.69999999 22.6 8.1 32.7 7.2 13.6 18.5 21.9 33.39999999 25.7 2.8 0.7 6.5 0.1 8.00000001 3.7l234 0c5.5-2 11.4-2.19999999 17.1-3.9 20.7-5.9 33.3-19.4 38.9-39.8 1.8-6.5 2.3-13.2 2.1-19.9 0-1.39999999-1.1-3.3 0.9-4.4l0-1.99999999c-2.3-0.2-2.2-2.1-2.4-3.70000001z m-40.6 11.4c0 12.2-6.60000001 20.7-20.5 20.6-73.3-0.4-146.6-0.2-220-0.1-11.8 0-18.1-7-18.5-18.3-2.4-74.6-0.50000001-149.1-0.8-223.7 0-6.4-0.4-13.4 3-19.6 3-5.4 7.19999999-8.5 13.7-8.5 37.5 0.1 75 0 112.5 0 37.2 0 74.3 0.2 111.5-0.1 12.1-0.1 17.6 7.8 19.3 18.7 1.3 8.6 0 17-0.1 25.5-0.2 68.50000001-0.1 137-0.1 205.5z" fill="#2a97de" p-id="3865"></path><path d="M884.2 830.5c-0.1-67.8-0.1-135.7 0-203.5 0-9.4-0.2-18.7-2.1-28-2.5-12.5-7.8-23.8-17.10000001-32.5-10.4-9.7-23.4-14.5-37.59999999-14.5-74.3-0.2-148.7-0.1-223-0.1-6.3 0-12.4 0.4-18.5 2-19.90000001 5.3-33.7 17.3-41.3 36.7-5.2 13.3-5 27.3-5.29999999 41-0.50000001 23.1-0.9 46.2 0.49999999 69.3 1.2 19 0.3 38.20000001 1 57.3 0.9 27.6 0.29999999 55.3 0.2 83 0 6.4 0.6 12.7 2 19 4.2 18.39999999 13.8 32.5 31.3 40.6 5.7 2.6 12 2.8 17.7 5.2-1.5-3.7-5.2-3-8-3.7-14.9-3.8-26.2-12.2-33.40000001-25.7-5.4-10.2-7.9-21.2-8.09999999-32.7-0.5-33 0.1-65.9-0.7-98.9-0.8-34.50000001-2-68.9-1.3-103.4 0.2-11.5 0.7-23 2.00000001-34.4 3.5-32.2 27.4-53.5 59.69999999-53.6l148 0c25.29999999 0 50.7-0.1 76 0 26.4 0.2 46.6 16 53.2 41.5 2.1 8.1 3.1 16.3 3.1 24.7l0 206.00000001c0 2.2-0.1 4.3 0.1 6.49999999 0.20000001 1.6 0 3.49999999 2.4 3.7-1.9-1.5-0.8-3.70000001-0.8-5.5z" fill="#2a97de" p-id="3866"></path><path d="M130.9 880.4c-7.99999999-13-10.60000001-27.4-10.7-42.2-0.4-41.1-0.1-82.2-0.2-123.3 0-1.6 1.2-3.6-0.9-4.9 1 1.7 0.5 3.6 0.5 5.4 0.3 44.8-0.8 89.6 0.60000001 134.4 0.59999999 18.9 8.1 34.9 23.59999999 46.5 8.4 6.3 18 9.1 28.3 9.7-2.4-1.8-5.4-1.2-8.2-1.9-13.9-4-25.20000001-11.2-33-23.7zM120 184.00000001c-0.3-6.6 0.5-13.09999999 2.1-19.50000001 5.4-21 17.8-35.7 38.8-42.8 4.8-1.6 9.9-1.8 14.69999999-3.3l-0.39999999 0c-28.1-0.4-53.2 24.4-55.3 52.7-0.4 5.6 0.5 11.2-0.9 16.8 2.10000001-0.8 1.1-2.6 1-3.89999999zM884.2 842.4c0.2 6.7-0.3 13.4-2.1 19.9-5.6 20.4-18.2 33.9-38.9 39.8-5.7 1.6-11.6 1.8-17.1 3.9 5.3-1.1 10.8-0.8 16.1-2.1 22.8-5.5 40.60000001-25.5 42-48.6 0.4-5.8-0.6-11.6 0.8-17.3-1.89999999 1.1-0.9 3-0.8 4.4z" fill="#2a97de" p-id="3867"></path><path d="M667.2 415.59999999c0.2 12.29999999 8.3 20.4 19.99999999 20.40000001L859 436c12.3 0 20.1-8.5 19.9-20.8-0.2-12.9-6.90000001-21-19.7-21.1-57.4-0.20000001-114.9-0.1-172.3 0-11.99999999 0-19.9 8.4-19.7 21.49999999zM667.4 162.6c-1.8 9.9 4.9 23.3 18.2 23.3 29.2 0.20000001 58.3 0 87.5 0l87.00000001 0c1.6 0 3.4 0.1 4.89999999-0.4 9.4-3.3 16.2-14.39999999 14-23.5-2.69999999-11.4-7.2-17.9-21.4-18-55.5-0.2-111-0.1-166.49999999-0.1-14.4 0.1-21.1 4.6-23.70000001 18.7zM727.3 255.3c-9.4 2.6-16.8 13-15.1 22.1 2.4 12.4 6.6 19.4 20.9 19.5 41.1 0.3 82.3 0.1 123.39999999 0.1 13.8 0 20-5.7 22.20000002-17.5 2.1-11.1-4.5-24.40000001-19.1-24.5l-63.50000001 0-64.50000001 0c-1.30000001 0-2.90000001 0-4.29999999 0.3zM544.8 283c1.9 8.7 10.2 14 19.80000001 14L653 297c13.09999999 0 21-4 23.70000001-18.1 1.9-10.3-5.2-24-18.50000002-23.9-15.8 0.1-31.60000001 0-47.49999999 0-15.3 0-30.6 0.2-46 0-19-0.3-22.80000001 14.6-19.9 28zM547.39999999 402c-3.4 4.9-3.3 10.1-3.29999998 15.4 0 10.5 7.9 18.5 18.29999999 18.5l26 0c9 0 18 0.1 27 0 4.6-0.1 8.7-1.3 12.3-4.9 5.2-5.2 6.69999999-11.2 6.5-18.19999999-0.3-9.9-8.9-18.8-18.7-18.80000001-17.7-0.1-35.3-0.2-53 0.1-6.10000001 0-11.3 2.4-15.10000001 7.9zM555.9 145.70000001c-6.2 2.2-11.8 9.8-12 17.89999998-0.5 14.3 7.90000001 23.6 22.8 22.50000001 7-0.5 14-0.1 21-0.1l25 0c1.5 0 2.99999999 0 4.4-0.4 10.30000001-3.2 15.5-12.9 14-23.9-1.6-11-8.4-17.4-19.7-17.6-15.8-0.3-31.7-0.1-47.5-0.1-2.90000001 0-5.5 0.8-8 1.70000001zM257.8 672c-7.3 1.9-12.7 7.9-13.7 15.4-0.2 1.3-0.4 2.7-0.4 4 0 0.6 0.2 1.5-0.8 1.7l0 28.8c0.7 0.4 0.3 1.09999999 0.3 1.6 0 13.3-0.1 26.6 0.1 39.90000001 0 4.8 0.9 9.5 3.5 13.69999999 2.5 4.1 6.2 6.4 10.7 7.7 0.9 0.2 1.89999999 0 2.6 0.60000001l75.5 0c0.20000001-1 1.1-0.7 1.7-0.80000001 4.1-0.7 7.90000001-1.8 11-4.6 4.1-3.7 5.8-8.6 5.9-13.9 0.1-24.3 0.1-48.7 0-73 0-3.1-0.3-6.1-1.3-9.1-2.5-7.9-8.9-12.7-17.2-12.7l-71.9 0c-2-0.1-4 0.2-6 0.7zM250.1 238.5c-7.3 1.9-12.7 7.9-13.7 15.4-0.2 1.3-0.4 2.7-0.4 4 0 0.6 0.2 1.5-0.8 1.7l0 28.8c0.7 0.4 0.3 1.09999999 0.3 1.6 0 13.3-0.1 26.6 0.1 39.90000001 0 4.8 0.9 9.5 3.5 13.69999999 2.5 4.1 6.2 6.4 10.7 7.7 0.9 0.2 1.89999999 0 2.6 0.6l75.5 0c0.20000001-1 1.1-0.7 1.7-0.8 4.1-0.7 7.90000001-1.8 11-4.6 4.1-3.7 5.8-8.6 5.9-13.9 0.1-24.3 0.1-48.7 0-73 0-3.1-0.3-6.1-1.3-9.1-2.5-7.9-8.9-12.7-17.2-12.7l-71.9-1e-8c-2-0.2-4.1 0.2-6 0.70000001zM676.6 672.6c-7.3 1.9-12.7 7.9-13.7 15.4-0.2 1.3-0.4 2.7-0.40000001 4 0 0.6 0.2 1.5-0.79999999 1.7l-1e-8 28.8c0.7 0.4 0.3 1.09999999 0.30000001 1.6 0 13.3-0.1 26.6 0.10000001 39.9 0 4.8 0.9 9.5 3.49999999 13.7 2.5 4.1 6.2 6.4 10.7 7.70000001 0.9 0.2 1.89999999 0 2.6 0.6l75.49999999-1e-8c0.20000001-1 1.1-0.7 1.70000001-0.8 4.1-0.7 7.90000001-1.8 11-4.6 4.1-3.7 5.8-8.6 5.9-13.9 0.1-24.3 0.1-48.7 0-73 0-3.1-0.3-6.1-1.3-9.1-2.5-7.9-8.9-12.7-17.2-12.7l-71.9 0c-2-0.1-4 0.2-6 0.7z" fill="#2a97de" p-id="3868"></path></svg>