<svg t="1579156890080" class="icon" viewBox="0 0 1024 1024" version="1.1" xmlns="http://www.w3.org/2000/svg" p-id="14252" width="32" height="32"><path d="M901.306 731.759l18.832-4a29.943 29.943 0 0 1 12.474 58.573l-68.346 14.5a49.952 49.952 0 0 1-59.214-38.454L790.5 694.047a29.943 29.943 0 0 1 58.582-12.428l3.168 14.881A385.2 385.2 0 0 0 899 512c0-213.734-173.266-387-387-387a385.137 385.137 0 0 0-209.734 61.751c-0.6 0.459-1.194 0.92-1.835 1.339a29.984 29.984 0 0 1-32.867-50.159c0.1-0.064 0.2-0.113 0.3-0.176l-0.1-0.156A444.873 444.873 0 0 1 512 65c246.871 0 447 200.129 447 447a444.87 444.87 0 0 1-57.694 219.759zM342 512a170 170 0 1 1 170 170 170 170 0 0 1-170-170z m280 0a110 110 0 1 0-110 110 110 110 0 0 0 110-110zM512 899a385.155 385.155 0 0 0 211.454-62.854l0.255 0.391c0.291-0.206 0.56-0.431 0.86-0.627a29.985 29.985 0 1 1 28.651 52.426A444.842 444.842 0 0 1 512 959C265.129 959 65 758.871 65 512a444.866 444.866 0 0 1 57.779-219.91l-18.706 3.973a29.9 29.9 0 0 1-12.439-58.485l68.154-14.478a49.812 49.812 0 0 1 59.047 38.4l14.512 68.234a29.861 29.861 0 1 1-58.418 12.409l-3.129-14.728A385.178 385.178 0 0 0 125 512c0 213.734 173.266 387 387 387z" fill="#1296db" p-id="14253"></path></svg>