<?xml version="1.0" standalone="no"?><!DOCTYPE svg PUBLIC "-//W3C//DTD SVG 1.1//EN" "http://www.w3.org/Graphics/SVG/1.1/DTD/svg11.dtd"><svg t="1579153764445" class="icon" viewBox="0 0 1025 1024" version="1.1" xmlns="http://www.w3.org/2000/svg" p-id="11277" xmlns:xlink="http://www.w3.org/1999/xlink" width="200.1953125" height="200"><defs><style type="text/css"></style></defs><path d="M511.657143 812.114286c-79.314286 0-153.942857-30.857143-210.057143-87.085715S214.514286 594.285714 214.514286 514.971429s30.857143-153.942857 87.085714-210.057143c56.114286-56.114286 130.742857-87.085714 210.057143-87.085715 27.2 0 54.171429 3.657143 80.114286 10.971429 12.114286 3.428571 19.314286 16 15.885714 28.114286-3.428571 12.114286-16 19.314286-28.114286 15.885714-21.942857-6.171429-44.8-9.257143-67.771428-9.257143-67.2 0-130.285714 26.171429-177.828572 73.6-47.542857 47.542857-73.6 110.628571-73.6 177.828572s26.171429 130.285714 73.6 177.828571c47.542857 47.542857 110.628571 73.6 177.828572 73.6s130.285714-26.171429 177.828571-73.6 73.6-110.628571 73.6-177.828571c0-83.771429-41.485714-161.714286-111.085714-208.571429-10.514286-7.085714-13.257143-21.257143-6.171429-31.771429 7.085714-10.514286 21.257143-13.257143 31.771429-6.171428 82.171429 55.428571 131.2 147.542857 131.2 246.514286 0 79.314286-30.857143 153.942857-87.085715 210.057142s-130.857143 87.085714-210.171428 87.085715zM512.457143 158.742857c-12.571429 0-22.857143-10.285714-22.857143-22.857143V22.857143c0-12.571429 10.285714-22.857143 22.857143-22.857143s22.857143 10.285714 22.857143 22.857143v113.028571c0 12.571429-10.285714 22.857143-22.857143 22.857143zM512.457143 1024c-12.571429 0-22.857143-10.285714-22.857143-22.857143v-113.028571c0-12.571429 10.285714-22.857143 22.857143-22.857143s22.857143 10.285714 22.857143 22.857143V1001.142857c0 12.571429-10.285714 22.857143-22.857143 22.857143zM135.771429 535.085714H22.857143c-12.571429 0-22.857143-10.285714-22.857143-22.857143s10.285714-22.857143 22.857143-22.857142h113.028571c12.571429 0 22.857143 10.285714 22.857143 22.857142-0.114286 12.685714-10.285714 22.857143-22.971428 22.857143zM858.171429 880.571429c-5.828571 0-11.657143-2.285714-16.114286-6.742858l-79.885714-79.885714c-8.914286-8.914286-8.914286-23.428571 0-32.342857 8.914286-8.914286 23.428571-8.914286 32.342857 0l79.885714 79.885714c8.914286 8.914286 8.914286 23.428571 0 32.342857-4.571429 4.571429-10.4 6.742857-16.228571 6.742858zM246.171429 268.685714c-5.828571 0-11.657143-2.285714-16.114286-6.742857l-79.885714-79.885714c-8.914286-8.914286-8.914286-23.428571 0-32.342857s23.428571-8.914286 32.342857 0l79.885714 79.885714c8.914286 8.914286 8.914286 23.428571 0 32.342857-4.457143 4.457143-10.4 6.742857-16.228571 6.742857zM777.6 269.485714c-5.828571 0-11.657143-2.285714-16.114286-6.742857-8.914286-8.914286-8.914286-23.428571 0-32.342857l79.885715-79.885714c8.914286-8.914286 23.428571-8.914286 32.342857 0s8.914286 23.428571 0 32.342857l-79.885715 79.885714c-4.457143 4.457143-10.4 6.742857-16.228571 6.742857zM166.171429 881.028571c-5.828571 0-11.657143-2.285714-16.114286-6.742857-8.914286-8.914286-8.914286-23.428571 0-32.342857l79.885714-79.885714c8.914286-8.914286 23.428571-8.914286 32.342857 0s8.914286 23.428571 0 32.342857l-80 79.885714c-4.457143 4.457143-10.285714 6.742857-16.114285 6.742857zM1002.4 534.971429h-113.028571c-12.571429 0-22.857143-10.285714-22.857143-22.857143s10.285714-22.857143 22.857143-22.857143h113.028571c12.571429 0 22.857143 10.285714 22.857143 22.857143s-10.285714 22.857143-22.857143 22.857143z" p-id="11278"></path><path d="M485.028571 684.114286c-2.857143 0-5.714286-0.457143-8.571428-1.371429-11.2-3.657143-18.742857-14.057143-18.742857-25.942857v-91.542857h-43.2c-10.4 0-19.771429-5.828571-24.457143-15.085714-4.685714-9.371429-3.657143-20.228571 2.628571-28.571429l124.8-164.914286c7.428571-9.714286 20.457143-13.371429 31.771429-8.914285 11.314286 4.571429 18.4 16.114286 17.028571 28.342857l-9.485714 85.6h51.657143c10.285714 0 19.657143 5.714286 24.342857 14.971428 4.685714 9.257143 3.771429 20.114286-2.4 28.457143l-123.428571 167.885714c-5.257143 7.2-13.485714 11.085714-21.942858 11.085715z m-33.371428-164.457143h24.571428c15.085714 0 27.314286 12.228571 27.314286 27.314286v53.828571l68.685714-93.257143h-35.771428c-7.771429 0-15.085714-3.314286-20.342857-9.028571-5.142857-5.714286-7.657143-13.485714-6.742857-21.142857l4.342857-39.542858-62.057143 81.828572z" p-id="11279"></path></svg>