<svg t="1579079214615" class="icon" viewBox="0 0 1024 1024" version="1.1" xmlns="http://www.w3.org/2000/svg" p-id="1421" width="32" height="32"><path d="M148.361503 873.076215a33.27639 33.27639 0 0 1 0.204778-47.150084 33.583556 33.583556 0 0 1 47.354862 0.204778A444.316592 444.316592 0 0 0 511.944454 957.291078c104.436669 0 203.293143-35.938501 280.852728-99.317224l35.580139-32.81564a33.583556 33.583556 0 0 1 47.303668 1.791806 33.27639 33.27639 0 0 1-1.791806 47.09889l-37.064778 34.146695A511.176537 511.176537 0 0 1 511.944454 1023.99744a511.43251 511.43251 0 0 1-363.582951-150.921225z m863.49671-248.497838a33.481167 33.481167 0 0 1-65.426501-14.385639 443.139119 443.139119 0 0 0-299.129144-518.394954A33.327584 33.327584 0 1 1 667.575568 28.265477a509.58951 509.58951 0 0 1 344.180256 596.3129zM275.374922 138.640701a443.036731 443.036731 0 0 0-198.788032 467.456481 33.481167 33.481167 0 0 1-65.52889 13.771306A509.999065 509.999065 0 0 1 279.624061 59.596478C328.821923 31.439533 431.415591-4.191801 507.336954 0.620477c8.549472-1.689417 17.96925 0 25.597223 5.938555 6.4505 5.119445 9.982917 12.081889 11.109194 20.273001 0.255972 2.713306-0.409556 5.221833-1.023889 8.037528a22.832723 22.832723 0 0 1-7.781555 12.133083L341.262173 263.759926a28.208139 28.208139 0 0 1-29.999945 6.91125 30.204723 30.204723 0 0 1-20.836139-23.703028l-15.051167-108.378641z m-4.965861 785.322793c-2.969278-0.46075-7.269611 31.740556-34.402668 17.918056-48.225168-24.624528-138.225003-97.781391-174.93142-168.736892a31.331001 31.331001 0 0 1-8.037528-24.931695c1.023889-8.191111 5.221833-14.846389 11.62114-19.965834 2.201361-1.638222 4.658695-2.354944 7.423194-3.276444a22.832723 22.832723 0 0 1 14.385639 0.409555l285.7162 54.675668c10.392472 1.945389 18.839556 10.750834 21.399278 22.116a30.204723 30.204723 0 0 1-9.573361 30.102334l-113.651669 91.689252z m716.671041-436.688619c1.126278 2.815694 30.921445-10.085306 33.020417 20.273 3.737195 54.061334-12.542639 168.890475-54.522084 236.825504a31.331001 31.331001 0 0 1-17.201334 19.812251 29.999945 29.999945 0 0 1-23.139889 0.307167c-2.559722-1.023889-4.402722-2.815694-6.655278-4.709889a22.832723 22.832723 0 0 1-7.013639-12.54264l-100.341113-273.071171a28.208139 28.208139 0 0 1 7.986333-29.692779 30.204723 30.204723 0 0 1 30.716668-7.320805l137.149919 50.170556z" fill="#414F58" p-id="1422"></path></svg>