<svg id="图层_1" data-name="图层 1" xmlns="http://www.w3.org/2000/svg" viewBox="0 0 48 40"><defs><style>.cls-1{fill:#333;}.cls-2{fill:#5d6161;}.cls-3{fill:#fff;}</style></defs><title>svg</title><rect class="cls-1" x="0.5" y="0.5" width="47" height="39" rx="9.5" ry="9.5"/><path class="cls-2" d="M38,1a9,9,0,0,1,9,9V30a9,9,0,0,1-9,9H10a9,9,0,0,1-9-9V10a9,9,0,0,1,9-9H38m0-1H10A10,10,0,0,0,0,10V30A10,10,0,0,0,10,40H38A10,10,0,0,0,48,30V10A10,10,0,0,0,38,0Z"/><path class="cls-3" d="M26.83,20l6.36-6.36a2,2,0,0,0-2.83-2.83L24,17.17l-6.36-6.36a2,2,0,0,0-2.83,2.83L21.17,20l-6.36,6.36a2,2,0,1,0,2.83,2.83L24,22.83l6.36,6.36a2,2,0,1,0,2.83-2.83Z"/></svg>