<svg width="16" height="17" viewBox="0 0 16 17" fill="none" xmlns="http://www.w3.org/2000/svg">
<path d="M10.6025 4.696C10.117 3.63518 9.42941 2.67225 8.57143 1.86036V5.05387C9.26714 5.01096 9.94755 4.88995 10.6025 4.69602V4.696ZM8.57143 7.92857H11.4109C11.365 7.18518 11.2297 6.46011 11.0127 5.76604C10.2342 6.00416 9.41638 6.15241 8.57143 6.19868V7.92857ZM8.57143 9.07143V10.8013C9.41638 10.8476 10.2342 10.9958 11.0127 11.234C11.2297 10.5399 11.365 9.81482 11.4109 9.07143H8.57143ZM8.57143 15.1396C9.42941 14.3278 10.117 13.3648 10.6025 12.304C9.94755 12.1101 9.26714 11.9891 8.57143 11.9461V15.1397V15.1396ZM7.42857 5.05386V1.86034C6.57059 2.67225 5.883 3.63516 5.39752 4.696C6.05245 4.88993 6.73286 5.01095 7.42857 5.05386ZM4.58905 7.92857H7.42857V6.19868C6.58363 6.15243 5.76584 6.00416 4.9873 5.76604C4.7703 6.46011 4.63504 7.18518 4.58905 7.92857ZM4.9873 11.234C5.76584 10.9958 6.58363 10.8476 7.42857 10.8013V9.07143H4.58905C4.63504 9.81482 4.7703 10.5399 4.9873 11.234ZM7.42857 15.1397V11.9461C6.73286 11.9891 6.05245 12.1101 5.39752 12.304C5.883 13.3648 6.57059 14.3278 7.42857 15.1396V15.1397ZM8 0.5C10.6957 0.5 13.08 1.83332 14.5294 3.87646C15.4556 5.18202 16 6.77743 16 8.5C16 10.2226 15.4556 11.818 14.5294 13.1236L14.5252 13.1201L14.5294 13.1236C13.08 15.1667 10.6957 16.5 8 16.5C5.30429 16.5 2.92 15.1667 1.47059 13.1235C0.544429 11.818 0 10.2226 0 8.5C0 6.77743 0.544429 5.18202 1.47059 3.87646C2.92 1.83332 5.30429 0.5 8 0.5ZM5.71577 2.03264C4.74334 2.3757 3.86063 2.935 3.13223 3.66968C3.51249 3.90951 3.91001 4.12081 4.32152 4.30186C4.68798 3.48321 5.1583 2.72121 5.71577 2.03264ZM11.6785 4.30186C12.09 4.12081 12.4875 3.90951 12.8678 3.66968C12.1394 2.935 11.2567 2.3757 10.2842 2.03264C10.8417 2.72121 11.312 3.48321 11.6785 4.30186ZM12.5558 7.92857H14.8337C14.7305 6.67804 14.2918 5.52262 13.6077 4.55263C13.1246 4.86749 12.6158 5.14107 12.0867 5.37045C12.3462 6.18386 12.5072 7.04123 12.5558 7.92857ZM12.0867 11.6296C12.6158 11.8589 13.1246 12.1325 13.6077 12.4474C14.2918 11.4774 14.7305 10.322 14.8337 9.07143H12.5558C12.5072 9.95875 12.3462 10.8161 12.0867 11.6296ZM10.2842 14.9674C11.2567 14.6243 12.1394 14.065 12.8678 13.3303C12.4875 13.0905 12.09 12.8792 11.6785 12.6981C11.312 13.5168 10.8417 14.2788 10.2842 14.9674ZM4.32152 12.6981C3.91001 12.8792 3.51249 13.0905 3.13223 13.3303C3.86063 14.065 4.74334 14.6243 5.71577 14.9674C5.15832 14.2788 4.68798 13.5168 4.32152 12.6981ZM3.44418 9.07143H1.16632C1.2695 10.322 1.70823 11.4774 2.39229 12.4474C2.87542 12.1325 3.38424 11.8589 3.91334 11.6296C3.65382 10.8161 3.49277 9.95877 3.44418 9.07143ZM2.39229 4.55263C1.70823 5.52262 1.2695 6.67802 1.16632 7.92857H3.44643L3.91071 5.375L2.39229 4.55263Z" fill="#19A0FA"/>
</svg>
