<svg width="17" height="16" viewBox="0 0 17 16" fill="none" xmlns="http://www.w3.org/2000/svg">
<path d="M11.1025 4.196C10.617 3.13518 9.92941 2.17225 9.07143 1.36036V4.55387C9.76714 4.51096 10.4476 4.38995 11.1025 4.19602V4.196ZM9.07143 7.42857H11.9109C11.865 6.68518 11.7297 5.96011 11.5127 5.26604C10.7342 5.50416 9.91638 5.65241 9.07143 5.69868V7.42857ZM9.07143 8.57143V10.3013C9.91638 10.3476 10.7342 10.4958 11.5127 10.734C11.7297 10.0399 11.865 9.31482 11.9109 8.57143H9.07143ZM9.07143 14.6396C9.92941 13.8278 10.617 12.8648 11.1025 11.804C10.4476 11.6101 9.76714 11.4891 9.07143 11.4461V14.6397V14.6396ZM7.92857 4.55386V1.36034C7.07059 2.17225 6.383 3.13516 5.89752 4.196C6.55245 4.38993 7.23286 4.51095 7.92857 4.55386ZM5.08905 7.42857H7.92857V5.69868C7.08363 5.65243 6.26584 5.50416 5.4873 5.26604C5.2703 5.96011 5.13504 6.68518 5.08905 7.42857ZM5.4873 10.734C6.26584 10.4958 7.08363 10.3476 7.92857 10.3013V8.57143H5.08905C5.13504 9.31482 5.2703 10.0399 5.4873 10.734ZM7.92857 14.6397V11.4461C7.23286 11.4891 6.55245 11.6101 5.89752 11.804C6.383 12.8648 7.07059 13.8278 7.92857 14.6396V14.6397ZM8.5 0C11.1957 0 13.58 1.33332 15.0294 3.37646C15.9556 4.68202 16.5 6.27743 16.5 8C16.5 9.72257 15.9556 11.318 15.0294 12.6236L15.0252 12.6201L15.0294 12.6236C13.58 14.6667 11.1957 16 8.5 16C5.80429 16 3.42 14.6667 1.97059 12.6235C1.04443 11.318 0.5 9.72257 0.5 8C0.5 6.27743 1.04443 4.68202 1.97059 3.37646C3.42 1.33332 5.80429 0 8.5 0ZM6.21577 1.53264C5.24334 1.8757 4.36063 2.435 3.63223 3.16968C4.01249 3.40951 4.41001 3.62081 4.82152 3.80186C5.18798 2.98321 5.6583 2.22121 6.21577 1.53264ZM12.1785 3.80186C12.59 3.62081 12.9875 3.40951 13.3678 3.16968C12.6394 2.435 11.7567 1.8757 10.7842 1.53264C11.3417 2.22121 11.812 2.98321 12.1785 3.80186ZM13.0558 7.42857H15.3337C15.2305 6.17804 14.7918 5.02262 14.1077 4.05263C13.6246 4.36749 13.1158 4.64107 12.5867 4.87045C12.8462 5.68386 13.0072 6.54123 13.0558 7.42857ZM12.5867 11.1296C13.1158 11.3589 13.6246 11.6325 14.1077 11.9474C14.7918 10.9774 15.2305 9.82198 15.3337 8.57143H13.0558C13.0072 9.45875 12.8462 10.3161 12.5867 11.1296ZM10.7842 14.4674C11.7567 14.1243 12.6394 13.565 13.3678 12.8303C12.9875 12.5905 12.59 12.3792 12.1785 12.1981C11.812 13.0168 11.3417 13.7788 10.7842 14.4674ZM4.82152 12.1981C4.41001 12.3792 4.01249 12.5905 3.63223 12.8303C4.36063 13.565 5.24334 14.1243 6.21577 14.4674C5.65832 13.7788 5.18798 13.0168 4.82152 12.1981ZM3.94418 8.57143H1.66632C1.7695 9.82196 2.20823 10.9774 2.89229 11.9474C3.37542 11.6325 3.88424 11.3589 4.41334 11.1296C4.15382 10.3161 3.99277 9.45877 3.94418 8.57143ZM2.89229 4.05263C2.20823 5.02262 1.7695 6.17802 1.66632 7.42857H3.94643L4.41071 4.875L2.89229 4.05263Z" fill="#666666"/>
</svg>
