<?xml version="1.0" standalone="no"?><!DOCTYPE svg PUBLIC "-//W3C//DTD SVG 1.1//EN" "http://www.w3.org/Graphics/SVG/1.1/DTD/svg11.dtd"><svg t="1624779984061" class="icon" viewBox="0 0 1024 1024" version="1.1" xmlns="http://www.w3.org/2000/svg" p-id="3194" xmlns:xlink="http://www.w3.org/1999/xlink" width="60" height="60"><defs><style type="text/css"></style></defs><path d="M250.896 750.536h328.424c33.248 0 63.496-13.064 85.936-34.304 2.4-1.52 4.696-3.304 6.8-5.384l169.696-168.168 0.208-0.208a124.392 124.392 0 0 0 36.408-88.264v-31.04a39.92 39.92 0 1 0-79.84 0v31.04a45.04 45.04 0 0 1-13.104 31.88l-80.88 80.16V294.912c0-22.664-6.256-44.8-17.64-63.92l111.296-111.176c0.208 1.76 0.32 3.544 0.32 5.36v98.376a39.92 39.92 0 1 0 79.848 0V125.176C878.368 56.16 822.216 0 753.2 0H421.376c-34.24 0-67.328 14.24-90.88 39.096l-160.64 160.32c-0.472 0.448-0.864 0.944-1.304 1.416-1.584 1.368-3.136 2.784-4.664 4.24-24.288 23.192-38.216 55.944-38.216 89.848V625.2c0 69.104 56.176 125.336 125.224 125.336z m136.432-655.36l0.944-0.968a44.904 44.904 0 0 1 33.104-14.36h303.872L625.64 179.344a120.032 120.032 0 0 0-47.152-7.592H310.6l76.728-76.576zM205.52 294.92c0-12.384 4.8-23.784 13.52-32.104a40.392 40.392 0 0 1 30.032-11.264l0.912 0.04h329.344l1.84-0.04a40.44 40.44 0 0 1 30.024 11.264c8.72 8.32 13.52 19.72 13.52 32.104v330.272c0 25.088-20.368 45.496-45.384 45.496H250.896c-25.024 0-45.384-20.408-45.384-45.496V294.92z m706.712 417.688c60.536 0 109.784 49.248 109.784 109.784v129.752a39.92 39.92 0 1 1-79.84 0V854.88c-23.24 18.736-58.56 44.52-104.528 70.224-79.04 44.208-206.448 96.896-364.56 96.896-159.12 0-276.288-53.328-346.56-98.064-77-49.024-116.4-98.8-118.032-100.888a39.92 39.92 0 1 1 62.88-49.208c0.24 0.312 34.384 42.816 100.936 84.576 88.552 55.568 189.744 83.744 300.776 83.744 210.064 0 361.656-103.2 419.28-149.704H782.48a39.92 39.92 0 1 1 0-79.848h129.752z" fill="#19A0FA" p-id="3195"></path></svg>