<svg width="16" height="16" viewBox="0 0 16 16" fill="none" xmlns="http://www.w3.org/2000/svg">
<path d="M1.14286 9.14382H5.71429C5.86437 9.14382 6.01298 9.17337 6.15164 9.2308C6.2903 9.28822 6.41628 9.37239 6.52241 9.4785C6.62853 9.58461 6.71271 9.71058 6.77015 9.84922C6.82758 9.98786 6.85714 10.1364 6.85714 10.2865V14.8573C6.85714 15.0073 6.82758 15.1559 6.77015 15.2946C6.71271 15.4332 6.62853 15.5592 6.52241 15.6653C6.41628 15.7714 6.2903 15.8556 6.15164 15.913C6.01298 15.9704 5.86437 16 5.71429 16H1.14286C0.992775 16 0.844162 15.9704 0.705505 15.913C0.566847 15.8556 0.440859 15.7714 0.334735 15.6653C0.228611 15.5592 0.144429 15.4332 0.0869948 15.2946C0.0295608 15.1559 0 15.0073 0 14.8573V10.2865C0 10.1364 0.0295608 9.98786 0.0869948 9.84922C0.144429 9.71058 0.228611 9.58461 0.334735 9.4785C0.440859 9.37239 0.566847 9.28822 0.705505 9.2308C0.844162 9.17337 0.992775 9.14382 1.14286 9.14382V9.14382ZM1.14286 10.2865V14.8573H5.71429V10.2865H1.14286ZM10.2857 9.14382H14.8571C15.0072 9.14382 15.1558 9.17337 15.2945 9.2308C15.4332 9.28822 15.5591 9.37239 15.6653 9.4785C15.7714 9.58461 15.8556 9.71058 15.913 9.84922C15.9704 9.98786 16 10.1364 16 10.2865V14.8573C16 15.0073 15.9704 15.1559 15.913 15.2946C15.8556 15.4332 15.7714 15.5592 15.6653 15.6653C15.5591 15.7714 15.4332 15.8556 15.2945 15.913C15.1558 15.9704 15.0072 16 14.8571 16H10.2857C10.1356 16 9.98702 15.9704 9.84836 15.913C9.7097 15.8556 9.58372 15.7714 9.47759 15.6653C9.37147 15.5592 9.28729 15.4332 9.22985 15.2946C9.17242 15.1559 9.14286 15.0073 9.14286 14.8573V10.2865C9.14286 10.1364 9.17242 9.98786 9.22985 9.84922C9.28729 9.71058 9.37147 9.58461 9.47759 9.4785C9.58372 9.37239 9.7097 9.28822 9.84836 9.2308C9.98702 9.17337 10.1356 9.14382 10.2857 9.14382V9.14382ZM10.2857 10.2865V14.8573H14.8571V10.2865H10.2857ZM1.14286 0.0022583H5.71429C5.86437 0.0022583 6.01298 0.0318149 6.15164 0.0892407C6.2903 0.146667 6.41628 0.230836 6.52241 0.336945C6.62853 0.443054 6.71271 0.569025 6.77015 0.707663C6.82758 0.846301 6.85714 0.994892 6.85714 1.14495V5.71573C6.85714 5.86579 6.82758 6.01438 6.77015 6.15302C6.71271 6.29166 6.62853 6.41763 6.52241 6.52374C6.41628 6.62985 6.2903 6.71402 6.15164 6.77144C6.01298 6.82887 5.86437 6.85843 5.71429 6.85843H1.14286C0.992775 6.85843 0.844162 6.82887 0.705505 6.77144C0.566847 6.71402 0.440859 6.62985 0.334735 6.52374C0.228611 6.41763 0.144429 6.29166 0.0869948 6.15302C0.0295608 6.01438 0 5.86579 0 5.71573V1.14495C0 0.994892 0.0295608 0.846301 0.0869948 0.707663C0.144429 0.569025 0.228611 0.443054 0.334735 0.336945C0.440859 0.230836 0.566847 0.146667 0.705505 0.0892407C0.844162 0.0318149 0.992775 0.0022583 1.14286 0.0022583V0.0022583ZM1.14286 1.14495V5.71573H5.71429V1.14495H1.14286V1.14495Z" fill="white"/>
<path d="M14.8571 0C15.0072 0 15.1558 0.0295566 15.2945 0.0869824C15.4332 0.144408 15.5591 0.228579 15.6653 0.334688C15.7714 0.440797 15.8556 0.566766 15.913 0.705404C15.9704 0.844042 16 0.992633 16 1.14269V5.71347C16 5.86353 15.9704 6.01213 15.913 6.15076C15.8556 6.2894 15.7714 6.41537 15.6653 6.52148C15.5591 6.62759 15.4332 6.71176 15.2945 6.76919C15.1558 6.82661 15.0072 6.85617 14.8571 6.85617H10.2857C10.1356 6.85617 9.98702 6.82661 9.84836 6.76919C9.70971 6.71176 9.58372 6.62759 9.4776 6.52148C9.37147 6.41537 9.28729 6.2894 9.22986 6.15076C9.17242 6.01213 9.14286 5.86353 9.14286 5.71347V1.14269C9.14286 0.992633 9.17242 0.844042 9.22986 0.705404C9.28729 0.566766 9.37147 0.440797 9.4776 0.334688C9.58372 0.228579 9.70971 0.144408 9.84836 0.0869824C9.98702 0.0295566 10.1356 0 10.2857 0H14.8571V0ZM14.8571 1.14269H10.2857V5.71347H14.8571V1.14269V1.14269Z" fill="white"/>
</svg>
